:version 1.10
:name ASF
:units
  mass 1
  length 1
  angle deg
:documentation
  ASF file generated by Kaydara
:root
  axis xyz
  order  tx ty tz rx ry rz
  position 0 0 0
  orientation 0 0 0
:bonedata
  begin
    id 1
    name lowerbackDummy
    direction 0 0 0
    length 0
    axis 0 -0 0 xyz
  end
  begin
    id 2
    name lowerback
    direction 0.0149039 0.998517 -0.0523597
    length 4.68464
    axis 0 -0 0 xyz
    dof rx ry rz
    limits( -inf , inf )
( -inf , inf )
( -inf , inf )

  end
  begin
    id 3
    name upperback
    direction -0.00882659 0.999418 -0.0329624
    length 4.68933
    axis 0 -0 0 xyz
    dof rx ry rz
    limits( -inf , inf )
( -inf , inf )
( -inf , inf )

  end
  begin
    id 4
    name thorax
    direction -0.0165585 0.999826 -0.0085833
    length 4.68976
    axis 0 -0 0 xyz
    dof rx ry rz
    limits( -inf , inf )
( -inf , inf )
( -inf , inf )

  end
  begin
    id 5
    name lowerneck
    direction -0.0130877 0.999911 0.00260353
    length 3.85007
    axis 0 -0 0 xyz
    dof rx ry rz
    limits( -inf , inf )
( -inf , inf )
( -inf , inf )

  end
  begin
    id 6
    name upperneck
    direction -0.0348454 0.928205 -0.370435
    length 3.70427
    axis 0 -0 0 xyz
    dof rx ry rz
    limits( -inf , inf )
( -inf , inf )
( -inf , inf )

  end
  begin
    id 7
    name head
    direction 0 0 0
    length 0
    axis 0 0 0 xyz
    dof rx ry rz
    limits( -inf , inf )
( -inf , inf )
( -inf , inf )

  end
  begin
    id 8
    name lclavicle
    direction 0.987582 0.144023 0.0627671
    length 7.76078
    axis 0 -0 0 xyz
    dof rx ry rz
    limits( -inf , inf )
( -inf , inf )
( -inf , inf )

  end
  begin
    id 9
    name lhumerus
    direction 1 -4.48958e-011 -1.45183e-018
    length 12.0426
    axis 180 -30 -90 xyz
    dof rx ry rz
    limits( -inf , inf )
( -inf , inf )
( -inf , inf )

  end
  begin
    id 10
    name lradius
    direction 1 -4.48999e-011 3.74805e-027
    length 5.43051
    axis 180 -30 -90 xyz
    dof rz ry rx
    limits( -inf , inf )
( -inf , inf )
( -inf , inf )

  end
  begin
    id 11
    name lwrist
    direction 1 -4.48988e-011 -4.48237e-017
    length 2.71524
    axis -90 90 0 xyz
    dof rz rx ry
    limits( -inf , inf )
( -inf , inf )
( -inf , inf )

  end
  begin
    id 12
    name lhand
    direction 1 -4.48882e-011 -4.48237e-017
    length 1.61667
    axis -90 90 0 xyz
    dof ry rx rz
    limits( -inf , inf )
( -inf , inf )
( -inf , inf )

  end
  begin
    id 13
    name lfingers
    direction 0 0 0
    length 0
    axis 0 0 0 xyz
    dof rz ry rx
    limits( -inf , inf )
( -inf , inf )
( -inf , inf )

  end
  begin
    id 14
    name lthumb
    direction 0 0 0
    length 0
    axis 0 0 0 xyz
    dof ry rx rz
    limits( -inf , inf )
( -inf , inf )
( -inf , inf )

  end
  begin
    id 15
    name rclavicle
    direction -0.980998 0.169556 0.0943023
    length 7.31716
    axis 0 -0 0 xyz
    dof rx ry rz
    limits( -inf , inf )
( -inf , inf )
( -inf , inf )

  end
  begin
    id 16
    name rhumerus
    direction -1 -1.83355e-005 2.45537e-005
    length 12.4217
    axis 180 30 90 xyz
    dof rx ry rz
    limits( -inf , inf )
( -inf , inf )
( -inf , inf )

  end
  begin
    id 17
    name rradius
    direction -1 -4.48967e-011 0
    length 5.51244
    axis 180 30 90 xyz
    dof rz ry rx
    limits( -inf , inf )
( -inf , inf )
( -inf , inf )

  end
  begin
    id 18
    name rwrist
    direction -1 -4.48964e-011 -4.48237e-017
    length 2.75622
    axis -90 -90 0 xyz
    dof rz rx ry
    limits( -inf , inf )
( -inf , inf )
( -inf , inf )

  end
  begin
    id 19
    name rhand
    direction -1 -4.48882e-011 -4.48237e-017
    length 1.81335
    axis -90 -90 0 xyz
    dof ry rx rz
    limits( -inf , inf )
( -inf , inf )
( -inf , inf )

  end
  begin
    id 20
    name rfingers
    direction 0 0 0
    length 0
    axis 0 0 0 xyz
    dof rz ry rx
    limits( -inf , inf )
( -inf , inf )
( -inf , inf )

  end
  begin
    id 21
    name rthumb
    direction 0 0 0
    length 0
    axis 0 0 0 xyz
    dof ry rx rz
    limits( -inf , inf )
( -inf , inf )
( -inf , inf )

  end
  begin
    id 22
    name rfemurDummy
    direction -0.640058 -0.688614 0.340788
    length 5.51442
    axis 0 -0 0 xyz
  end
  begin
    id 23
    name rfemur
    direction -0.34202 -0.939693 0
    length 14.6194
    axis 0 -0 -20 xyz
    dof rx ry rz
    limits( -inf , inf )
( -inf , inf )
( -inf , inf )

  end
  begin
    id 24
    name rtibia
    direction -0.34202 -0.939693 0
    length 17.7267
    axis 0 -0 -20 xyz
    dof rz ry rx
    limits( -inf , inf )
( -inf , inf )
( -inf , inf )

  end
  begin
    id 25
    name rfoot
    direction -0.0979793 -0.269196 0.958089
    length 4.88571
    axis -90 -7.62852e-016 -20 xyz
    dof ry rx rz
    limits( -inf , inf )
( -inf , inf )
( -inf , inf )

  end
  begin
    id 26
    name rtoes
    direction 0 0 0
    length 0
    axis 0 0 0 xyz
    dof rz ry rx
    limits( -inf , inf )
( -inf , inf )
( -inf , inf )

  end
  begin
    id 27
    name lfemurDummy
    direction 0.653368 -0.678499 0.335782
    length 5.59662
    axis 0 -0 0 xyz
  end
  begin
    id 28
    name lfemur
    direction 0.34202 -0.939693 0
    length 14.6166
    axis 0 -0 20 xyz
    dof rx ry rz
    limits( -inf , inf )
( -inf , inf )
( -inf , inf )

  end
  begin
    id 29
    name ltibia
    direction 0.34202 -0.939693 0
    length 17.6582
    axis 0 -0 20 xyz
    dof rz ry rx
    limits( -inf , inf )
( -inf , inf )
( -inf , inf )

  end
  begin
    id 30
    name lfoot
    direction 0.0811271 -0.222895 0.971461
    length 5.14087
    axis -90 7.62852e-016 20 xyz
    dof ry rx rz
    limits( -inf , inf )
( -inf , inf )
( -inf , inf )

  end
  begin
    id 31
    name ltoes
    direction 0 0 0
    length 0
    axis 0 0 0 xyz
    dof rz ry rx
    limits( -inf , inf )
( -inf , inf )
( -inf , inf )

  end
:hierarchy
  begin
    root lowerbackDummy rfemurDummy lfemurDummy
    lowerbackDummy lowerback
    lowerback upperback
    upperback thorax
    thorax lowerneck lclavicle rclavicle
    lowerneck upperneck
    upperneck head
    lclavicle lhumerus
    lhumerus lradius
    lradius lwrist
    lwrist lhand lthumb
    lhand lfingers
    rclavicle rhumerus
    rhumerus rradius
    rradius rwrist
    rwrist rhand rthumb
    rhand rfingers
    rfemurDummy rfemur
    rfemur rtibia
    rtibia rfoot
    rfoot rtoes
    lfemurDummy lfemur
    lfemur ltibia
    ltibia lfoot
    lfoot ltoes
  end

:SAMPLES-PER-SECOND 30
:FULLY-SPECIFIED
:DEGREES
136
root  0.2650600015 37.23777711 -11.33253368 8.890640259 -1.680250049 -3.633860111
lowerback  -1.75098002 2.4927001 4.323400021
upperback  -1.929509997 3.294039965 1.709699988
thorax  -0.8596850038 1.608759999 -0.6269099712
lowerneck  -16.21459961 -0.1116399989 -2.014630079
upperneck  40.68769836 1.29824996 -1.424890041
head  17.82679939 0.04044489935 -0.03483359888
lclavicle  0 5.864150125e-015 -2.067359921e-014
lhumerus  -51.91009903 29.25839996 58.61130142
lradius  -2.999367855e-031 -1.863501143e-031 31.8526001
lwrist  -1.059337512e-030 -3.531125038e-031 -3.030920029
lhand  -0 0.6711040139 21.79509926
lfingers  90 7.125020027 -90
lthumb  92.21548158 4.485607564 63.68022158
rclavicle  0 5.864150125e-015 -2.067359921e-014
rhumerus  -39.78509903 -10.75629997 -72.25080109
rradius  3.042423349e-031 1.792346005e-031 30.50309944
rwrist  7.062250077e-031 3.531125038e-031 -14.11849976
rhand  -1.76774467e-031 -2.84717989 9.714409828
rfingers  -90 -7.125020027 -90
rthumb  -79.24788186 -23.86933588 -64.86038577
rfemur  -23.69960022 15.83850002 26.3477993
rtibia  -0 0 31.63369942
rfoot  -0 -16.26670074 -18.82850075
rtoes  6.064782208 19.09427315 -107.9934526
lfemur  -25.4557991 4.75564003 -19.16990089
ltibia  -0 0 64.83750153
lfoot  -0 -9.231539726 18.07760048
ltoes  -3.350346046 -19.72872135 -99.83845243
137
root  0.2496444334 37.22644415 -11.03095558 8.933970451 -1.615569949 -3.464940071
lowerback  -1.809280038 2.479010105 4.35379982
upperback  -1.982900023 3.272919893 1.537209988
thorax  -0.8711420298 1.595909953 -0.8191980124
lowerneck  -16.58009911 0.1908770055 -1.055750012
upperneck  41.1271019 1.774070024 -2.183840036
head  18.20549965 0.268505007 -0.4729470015
lclavicle  0 5.864150125e-015 -2.067359921e-014
lhumerus  -52.61180115 29.8010006 57.65169907
lradius  -3.032936992e-031 -1.808352078e-031 30.80500031
lwrist  -3.531125038e-031 -0 -4.484139919
lhand  -7.063189129e-031 0.9343010187 22.45660019
lfingers  90 7.125020027 -90
lthumb  92.51533421 5.033676986 63.40441916
rclavicle  0 5.864150125e-015 -2.067359921e-014
rhumerus  -39.7582016 -10.42179966 -72.62149811
rradius  3.024295818e-031 1.82276681e-031 31.07769966
rwrist  7.062250077e-031 -1.765562519e-031 -14.30309963
rhand  -1.766926487e-031 -2.251430035 9.625800133
rfingers  -90 -7.125020027 -90
rthumb  -79.00814463 -23.74626044 -64.25003866
rfemur  -23.28569984 15.85289955 26.33139992
rtibia  -0 0 31.84770012
rfoot  -0 -16.65299988 -19.03860092
rtoes  5.615023424 19.22666559 -106.6231943
lfemur  -26.58609962 4.806350231 -19.46269989
ltibia  -0 0 64.73419952
lfoot  -0 -10.20720005 17.45350075
ltoes  -2.393061426 -19.86213841 -97.01230224
138
root  0.2535333314 37.22511051 -10.69242222 8.919529915 -1.63925004 -2.97149992
lowerback  -1.96420002 2.520519972 4.128079891
upperback  -2.02699995 3.32171011 1.267750025
thorax  -0.8236939907 1.621649981 -0.9625859857
lowerneck  -16.60860062 0.2865949869 -0.6245409846
upperneck  41.43059921 1.917070031 -2.499229908
head  18.40819931 0.3481580019 -0.6756209731
lclavicle  0 5.864150125e-015 -2.067359921e-014
lhumerus  -53.13809967 30.00399971 57.02130127
lradius  -3.067341162e-031 -1.749360522e-031 29.69689941
lwrist  -7.062250077e-031 -7.062250077e-031 -5.596970081
lhand  -7.064798358e-031 1.538949966 22.25709915
lfingers  90 7.125020027 -90
lthumb  92.43408204 4.751717277 62.83539341
rclavicle  0 5.864150125e-015 -2.067359921e-014
rhumerus  -39.80899811 -10.41119957 -72.68489838
rradius  3.01213068e-031 1.842800262e-031 31.45800018
rwrist  7.062250077e-031 -1.765562519e-031 -14.15279961
rhand  -1.766313289e-031 -1.670600057 10.06089973
rfingers  -90 -7.125020027 -90
rthumb  -78.52163522 -24.09330181 -63.55327985
rfemur  -22.81999969 15.47490025 25.95249939
rtibia  -0 0 32.09249878
rfoot  -0 -16.79030037 -18.90550041
rtoes  3.72615763 19.66380806 -100.9534769
lfemur  -27.38349915 4.743319988 -20.20779991
ltibia  -0 0 64.37999725
lfoot  -0 -12.09230042 16.74080086
ltoes  -2.555800814 -19.84266052 -97.49151126
139
root  0.2029833362 37.20222233 -10.45011085 8.984459877 -1.952110052 -3.194070101
lowerback  -1.644629955 2.630130053 4.21818018
upperback  -2.123189926 3.488899946 1.296949983
thorax  -1.090559959 1.698320031 -0.9984740019
lowerneck  -16.52300072 0.2648659945 -0.6022340059
upperneck  41.42689896 1.887030005 -2.532109976
head  18.38279915 0.3356890082 -0.7011560202
lclavicle  0 5.864150125e-015 -2.067359921e-014
lhumerus  -53.71409988 30.45800018 56.36449814
lradius  -3.097928198e-031 -1.694604649e-031 28.67919922
lwrist  -7.062250077e-031 -3.531125038e-031 -6.995440006
lhand  -7.067228116e-031 2.150640011 21.9829998
lfingers  90 7.125020027 -90
lthumb  92.31142424 4.402346757 62.26254497
rclavicle  0 5.864150125e-015 -2.067359921e-014
rhumerus  -39.5387001 -10.28040028 -72.82910156
rradius  3.002378955e-031 1.858645918e-031 31.75989914
rwrist  7.062250077e-031 -0 -14.19029999
rhand  -1.765885995e-031 -1.096690059 10.0600996
rfingers  -90 -7.125020027 -90
rthumb  -78.24500517 -24.04752077 -62.94838723
rfemur  -22.67009926 16.35090065 26.32049942
rtibia  -0 0 32.37189865
rfoot  -0 -17.47089958 -19.34329987
rtoes  4.334223838 19.54351666 -102.765696
lfemur  -28.70859909 5.265600204 -19.99399948
ltibia  -0 0 64.12930298
lfoot  -0 -12.73400021 16.36599922
ltoes  -2.54599465 -19.84387112 -97.46262273
140
root  0.1781575558 37.18844436 -10.15986645 9.078499794 -1.978659987 -3.168950081
lowerback  -1.726310015 2.611370087 4.243579865
upperback  -2.112839937 3.458039999 1.232059956
thorax  -1.030200005 1.683330059 -1.074910045
lowerneck  -16.44989967 0.3168990016 -0.4888859987
upperneck  41.31869888 1.972990036 -2.654119968
head  18.30319977 0.3715620041 -0.7606019974
lclavicle  0 5.864150125e-015 -2.067359921e-014
lhumerus  -54.29040146 30.87520027 55.729599
lradius  -3.121329781e-031 -1.651104004e-031 27.87770081
lwrist  -1.059337512e-030 -3.531125038e-031 -8.142439842
lhand  -7.06970415e-031 2.631309986 21.85490036
lfingers  90 7.125020027 -90
lthumb  92.25066596 4.205021544 61.80916238
rclavicle  0 5.864150125e-015 -2.067359921e-014
rhumerus  -39.08509827 -10.06280041 -73.13950348
rradius  2.989897419e-031 1.878658421e-031 32.14260101
rwrist  0 -0 -14.30869961
rhand  -1.765629859e-031 -0.5004100204 9.359809875
rfingers  -90 -7.125020027 -90
rthumb  -78.31049175 -23.37910089 -62.46238091
rfemur  -22.32659912 16.54980087 26.45240021
rtibia  -0 0 32.60430145
rfoot  -0 -18.39999962 -19.46450043
rtoes  5.243016756 19.3277531 -105.4964086
lfemur  -29.87879944 5.418829918 -20.12059975
ltibia  -0 0 63.63639832
lfoot  -0 -13.45919991 16.24790001
ltoes  -2.510978967 -19.84815523 -97.35948178
